<svg xmlns="http://www.w3.org/2000/svg" xmlns:xlink="http://www.w3.org/1999/xlink" width="500" zoomAndPan="magnify" viewBox="0 0 375 374.999991" height="500" preserveAspectRatio="xMidYMid meet" version="1.0"><defs><clipPath id="257a1cc7d6"><path d="M 58 255 L 160 255 L 160 369 L 58 369 Z M 58 255 " clip-rule="nonzero"/></clipPath><clipPath id="988e777c53"><path d="M 64.070312 255.015625 L 159.226562 315.34375 L 106.515625 398.480469 L 11.363281 338.152344 Z M 64.070312 255.015625 " clip-rule="nonzero"/></clipPath><clipPath id="2d01c4e03d"><path d="M 58.871094 368.273438 L 159.085938 315.253906 L 64.070312 255.015625 Z M 58.871094 368.273438 " clip-rule="nonzero"/></clipPath><clipPath id="ca70c955d8"><path d="M 64.070312 255.015625 L 159.082031 315.253906 L 106.375 398.390625 L 11.363281 338.152344 Z M 64.070312 255.015625 " clip-rule="nonzero"/></clipPath><clipPath id="885c7bc0af"><path d="M 18.75 7.382812 L 363.636719 7.382812 L 363.636719 352.269531 L 18.75 352.269531 Z M 18.75 7.382812 " clip-rule="nonzero"/></clipPath><clipPath id="13455c3074"><path d="M 18.75 179.824219 C 18.75 275.0625 95.957031 352.269531 191.191406 352.269531 C 286.429688 352.269531 363.636719 275.0625 363.636719 179.824219 C 363.636719 84.589844 286.429688 7.382812 191.191406 7.382812 C 95.957031 7.382812 18.75 84.589844 18.75 179.824219 Z M 18.75 179.824219 " clip-rule="nonzero"/></clipPath><clipPath id="1f65dd1007"><path d="M 105.6875 85.25 L 269.1875 85.25 L 269.1875 274.25 L 105.6875 274.25 Z M 105.6875 85.25 " clip-rule="nonzero"/></clipPath></defs><g clip-path="url(#257a1cc7d6)"><g clip-path="url(#988e777c53)"><g clip-path="url(#2d01c4e03d)"><g clip-path="url(#ca70c955d8)"><path fill="#faf6f0" d="M 87.601562 209.699219 L 7.652344 335.800781 L 130.351562 413.589844 L 210.300781 287.488281 Z M 87.601562 209.699219 " fill-opacity="1" fill-rule="nonzero"/></g></g></g></g><g clip-path="url(#885c7bc0af)"><g clip-path="url(#13455c3074)"><path fill="#faf6f0" d="M 18.75 352.269531 L 363.636719 352.269531 L 363.636719 7.382812 L 18.75 7.382812 Z M 18.75 352.269531 " fill-opacity="1" fill-rule="nonzero"/></g></g><g clip-path="url(#1f65dd1007)"><path fill="#000000" d="M 141.8125 174.285156 L 166.496094 186.257812 L 171.777344 204.1875 L 163.488281 195.835938 L 148.257812 190.679688 Z M 233.066406 174.285156 L 208.316406 186.257812 L 203.097656 204.1875 L 211.386719 195.835938 L 226.617188 190.679688 Z M 215.808594 246.984375 L 204.324219 213.03125 L 208.746094 265.039062 L 193.148438 274.25 L 202.972656 259.632812 L 171.902344 259.632812 L 181.726562 274.25 L 166.128906 265.039062 L 170.550781 213.03125 L 159.066406 246.984375 L 143.714844 204.003906 L 140.03125 223.589844 L 114.914062 204.554688 L 105.703125 183.679688 L 129.714844 138.363281 L 131.433594 148.371094 L 143.347656 131.484375 L 118.78125 109.808594 L 114.359375 153.898438 L 108.773438 85.25 L 167.664062 121.109375 L 187.4375 114.84375 L 207.210938 121.109375 L 266.101562 85.25 L 260.515625 153.898438 L 256.09375 109.808594 L 231.53125 131.484375 L 243.441406 148.371094 L 245.160156 138.363281 L 269.171875 183.679688 L 259.960938 204.554688 L 234.84375 223.589844 L 231.160156 204.003906 Z M 215.808594 246.984375 " fill-opacity="1" fill-rule="evenodd"/></g></svg>