<svg xmlns="http://www.w3.org/2000/svg" xmlns:xlink="http://www.w3.org/1999/xlink" width="500" zoomAndPan="magnify" viewBox="0 0 375 374.999991" height="500" preserveAspectRatio="xMidYMid meet" version="1.0"><defs><clipPath id="34921fe538"><path d="M 58 255 L 160 255 L 160 369 L 58 369 Z M 58 255 " clip-rule="nonzero"/></clipPath><clipPath id="46107fb8fa"><path d="M 64.070312 255.015625 L 159.226562 315.34375 L 106.515625 398.480469 L 11.363281 338.152344 Z M 64.070312 255.015625 " clip-rule="nonzero"/></clipPath><clipPath id="bbeb97b4c3"><path d="M 58.871094 368.273438 L 159.085938 315.253906 L 64.070312 255.015625 Z M 58.871094 368.273438 " clip-rule="nonzero"/></clipPath><clipPath id="293aefed8e"><path d="M 18.75 7.382812 L 363.636719 7.382812 L 363.636719 352.269531 L 18.75 352.269531 Z M 18.75 7.382812 " clip-rule="nonzero"/></clipPath><clipPath id="b1f03086a9"><path d="M 18.75 179.824219 C 18.75 275.0625 95.957031 352.269531 191.191406 352.269531 C 286.429688 352.269531 363.636719 275.0625 363.636719 179.824219 C 363.636719 84.589844 286.429688 7.382812 191.191406 7.382812 C 95.957031 7.382812 18.75 84.589844 18.75 179.824219 Z M 18.75 179.824219 " clip-rule="nonzero"/></clipPath><clipPath id="258af51247"><path d="M 105.6875 85.25 L 269.1875 85.25 L 269.1875 274.25 L 105.6875 274.25 Z M 105.6875 85.25 " clip-rule="nonzero"/></clipPath></defs><g clip-path="url(#34921fe538)"><g clip-path="url(#46107fb8fa)"><g clip-path="url(#bbeb97b4c3)"><path fill="#000000" d="M 64.070312 255.015625 L 159.226562 315.34375 L 106.515625 398.480469 L 11.363281 338.152344 Z M 64.070312 255.015625 " fill-opacity="1" fill-rule="nonzero"/></g></g></g><g clip-path="url(#293aefed8e)"><g clip-path="url(#b1f03086a9)"><path fill="#000000" d="M 18.75 352.269531 L 18.75 7.382812 L 363.636719 7.382812 L 363.636719 352.269531 Z M 18.75 352.269531 " fill-opacity="1" fill-rule="nonzero"/></g></g><g clip-path="url(#258af51247)"><path fill="#ffffff" d="M 141.835938 174.355469 L 166.539062 186.339844 L 171.824219 204.285156 L 163.53125 195.925781 L 148.289062 190.761719 Z M 233.15625 174.355469 L 208.390625 186.339844 L 203.167969 204.285156 L 211.464844 195.925781 L 226.703125 190.761719 Z M 215.886719 247.117188 L 204.394531 213.132812 L 208.820312 265.183594 L 193.210938 274.402344 L 203.042969 259.773438 L 171.949219 259.773438 L 181.78125 274.402344 L 166.171875 265.183594 L 170.597656 213.132812 L 159.105469 247.117188 L 143.742188 204.097656 L 140.054688 223.703125 L 114.921875 204.652344 L 105.703125 183.757812 L 129.730469 138.40625 L 131.449219 148.421875 L 143.371094 131.523438 L 118.792969 109.828125 L 114.367188 153.953125 L 108.773438 85.25 L 167.707031 121.136719 L 187.496094 114.867188 L 207.285156 121.136719 L 266.21875 85.25 L 260.625 153.953125 L 256.199219 109.828125 L 231.621094 131.523438 L 243.542969 148.421875 L 245.261719 138.40625 L 269.289062 183.757812 L 260.070312 204.652344 L 234.9375 223.703125 L 231.25 204.097656 Z M 215.886719 247.117188 " fill-opacity="1" fill-rule="evenodd"/></g></svg>