<svg xmlns="http://www.w3.org/2000/svg" xmlns:xlink="http://www.w3.org/1999/xlink" width="500" zoomAndPan="magnify" viewBox="0 0 375 374.999991" height="500" preserveAspectRatio="xMidYMid meet" version="1.0"><defs><clipPath id="762d689ee7"><path d="M 4.6875 1 L 367 1 L 367 374 L 4.6875 374 Z M 4.6875 1 " clip-rule="nonzero"/></clipPath></defs><g clip-path="url(#762d689ee7)"><path fill="#f9ad18" d="M 341.140625 180.539062 C 337.726562 189.625 314.171875 195.574219 312.71875 211.199219 C 310.402344 236.167969 370.691406 254.347656 366.789062 261.253906 C 362.828125 268.269531 307.824219 239.214844 292.261719 258.890625 C 283.796875 269.59375 293.820312 292.246094 288.851562 295.226562 C 283.167969 298.628906 262.777344 278.914062 251.34375 287.277344 C 231.085938 302.085938 251.34375 372.4375 244.613281 373.707031 C 237.820312 374.988281 221.871094 302.875 196.78125 302.035156 C 183.234375 301.585938 172.914062 332.695312 166.09375 331.5625 C 160.484375 330.628906 162.988281 296.761719 150.179688 292.953125 C 126.121094 285.800781 85.421875 352.675781 80.429688 348.398438 C 74.023438 342.914062 124.847656 288.765625 109.257812 269.109375 C 100.316406 257.828125 64.734375 269.382812 61.519531 264.566406 C 56.972656 257.753906 87.433594 237.175781 81.980469 223.691406 C 72.578125 200.4375 4.6875 212.414062 4.6875 204.386719 C 4.6875 196.4375 74.886719 199.222656 80.84375 174.863281 C 84.464844 160.054688 47.320312 140.585938 50.152344 133.984375 C 53.5625 126.035156 85.628906 136.566406 93.347656 123.765625 C 106.296875 102.285156 52.4375 58.90625 59.101562 50.113281 C 62.65625 45.417969 111.800781 97.484375 134.265625 86.292969 C 148.496094 79.207031 138.8125 47.6875 143.359375 44.28125 C 147.996094 40.808594 169.546875 68.089844 185.417969 65.855469 C 210.273438 62.355469 210.421875 -0.00390625 218.019531 1.75 C 222.828125 2.855469 214.972656 56.351562 237.703125 66.992188 C 253.65625 74.460938 276.347656 57.90625 280.894531 60.179688 C 285.980469 62.714844 274.394531 87.605469 286.578125 99.921875 C 304.222656 117.753906 351.332031 89.722656 354.957031 95.714844 C 358.1875 101.054688 304.835938 124.304688 310.449219 148.746094 C 313.984375 164.144531 343.171875 175.117188 341.140625 180.539062 " fill-opacity="1" fill-rule="nonzero"/></g><path fill="#fad208" d="M 102.394531 184.078125 C 105.421875 232.453125 142.277344 280.628906 207.5 273.820312 C 267.691406 267.539062 295.539062 213.695312 291.945312 168.824219 C 288.351562 123.949219 252.382812 83.488281 189.53125 86.257812 C 128.445312 88.949219 99.699219 141.003906 102.394531 184.078125 " fill-opacity="1" fill-rule="nonzero"/></svg>